<?xml version="1.0" encoding="UTF-8"?>
<svg width="20px" height="20px" viewBox="0 0 20 20" version="1.1" xmlns="http://www.w3.org/2000/svg" xmlns:xlink="http://www.w3.org/1999/xlink">
    <!-- Generator: Sketch 48.2 (47327) - http://www.bohemiancoding.com/sketch -->
    <title>Normal</title>
    <desc>Created with Sketch.</desc>
    <defs></defs>
    <g id="Home" stroke="none" stroke-width="1" fill="none" fill-rule="evenodd" transform="translate(-15.000000, -366.000000)">
        <g id="Icon" transform="translate(15.000000, 366.000000)" fill="#7826E2">
            <g id="Be">
                <g id="Normal">
                    <path d="M7.92258065,7.62580645 C7.91612903,7.49354839 7.89032258,7.36451613 7.83225806,7.24193548 C7.70967742,6.98387097 7.51612903,6.82903226 7.21290323,6.83225806 C6.80645161,6.83548387 6.4,6.83225806 5.99677419,6.83225806 C5.56451613,6.83225806 5.13225806,6.83225806 4.7,6.82903226 C4.62258065,6.82903226 4.59032258,6.8483871 4.59032258,6.93225806 C4.59354839,7.5516129 4.59354839,8.16774194 4.59032258,8.78709677 C4.59032258,8.86774194 4.61935484,8.89032258 4.69677419,8.89032258 C5.53225806,8.88709677 6.36774194,8.89032258 7.20322581,8.88387097 C7.54516129,8.88387097 7.76129032,8.71290323 7.86129032,8.38387097 C7.93225806,8.13548387 7.93870968,7.88064516 7.92258065,7.62580645 L7.92258065,7.62580645 Z M8.22903226,11.2387097 C8.15806452,10.6645161 7.75483871,10.3032258 7.17741935,10.3 L4.72903226,10.3 C4.59354839,10.3032258 4.59354839,10.3032258 4.59354839,10.4354839 L4.59354839,12.6225806 C4.59354839,12.7741935 4.59354839,12.7741935 4.74516129,12.7741935 L7.08709677,12.7741935 C7.18064516,12.7774194 7.27419355,12.7677419 7.36451613,12.7548387 C7.83548387,12.683871 8.10967742,12.4258065 8.21290323,11.9612903 C8.26774194,11.7225806 8.25806452,11.4806452 8.22903226,11.2387097 L8.22903226,11.2387097 Z M8.22903226,11.2387097 C8.15806452,10.6645161 7.75483871,10.3032258 7.17741935,10.3 L4.72903226,10.3 C4.59354839,10.3032258 4.59354839,10.3032258 4.59354839,10.4354839 L4.59354839,12.6225806 C4.59354839,12.7741935 4.59354839,12.7741935 4.74516129,12.7741935 L7.08709677,12.7741935 C7.18064516,12.7774194 7.27419355,12.7677419 7.36451613,12.7548387 C7.83548387,12.683871 8.10967742,12.4258065 8.21290323,11.9612903 C8.26774194,11.7225806 8.25806452,11.4806452 8.22903226,11.2387097 L8.22903226,11.2387097 Z M7.92258065,7.62580645 C7.91612903,7.49354839 7.89032258,7.36451613 7.83225806,7.24193548 C7.70967742,6.98387097 7.51612903,6.82903226 7.21290323,6.83225806 C6.80645161,6.83548387 6.4,6.83225806 5.99677419,6.83225806 C5.56451613,6.83225806 5.13225806,6.83225806 4.7,6.82903226 C4.62258065,6.82903226 4.59032258,6.8483871 4.59032258,6.93225806 C4.59354839,7.5516129 4.59354839,8.16774194 4.59032258,8.78709677 C4.59032258,8.86774194 4.61935484,8.89032258 4.69677419,8.89032258 C5.53225806,8.88709677 6.36774194,8.89032258 7.20322581,8.88387097 C7.54516129,8.88387097 7.76129032,8.71290323 7.86129032,8.38387097 C7.93225806,8.13548387 7.93870968,7.88064516 7.92258065,7.62580645 L7.92258065,7.62580645 Z M4.69677419,8.89032258 C5.53225806,8.88709677 6.36774194,8.89032258 7.20322581,8.88387097 C7.54516129,8.88387097 7.76129032,8.71290323 7.86129032,8.38387097 C7.93225806,8.13548387 7.93870968,7.88064516 7.92258065,7.62580645 C7.91612903,7.49354839 7.89032258,7.36451613 7.83225806,7.24193548 C7.70967742,6.98387097 7.51612903,6.82903226 7.21290323,6.83225806 C6.80645161,6.83548387 6.4,6.83225806 5.99677419,6.83225806 C5.56451613,6.83225806 5.13225806,6.83225806 4.7,6.82903226 C4.62258065,6.82903226 4.59032258,6.8483871 4.59032258,6.93225806 C4.59354839,7.5516129 4.59354839,8.16774194 4.59032258,8.78709677 C4.59032258,8.86774194 4.61935484,8.89032258 4.69677419,8.89032258 L4.69677419,8.89032258 Z M7.17741935,10.3 L4.72903226,10.3 C4.59354839,10.3032258 4.59354839,10.3032258 4.59354839,10.4354839 L4.59354839,12.6225806 C4.59354839,12.7741935 4.59354839,12.7741935 4.74516129,12.7741935 L7.08709677,12.7741935 C7.18064516,12.7774194 7.27419355,12.7677419 7.36451613,12.7548387 C7.83548387,12.683871 8.10967742,12.4258065 8.21290323,11.9612903 C8.26774194,11.7225806 8.25806452,11.4806452 8.22903226,11.2387097 C8.15806452,10.6645161 7.75483871,10.3032258 7.17741935,10.3 L7.17741935,10.3 Z M14.9935484,9.12903226 C14.5483871,8.82903226 14.0580645,8.81612903 13.5677419,8.98064516 C12.983871,9.17741935 12.6935484,9.63870968 12.5419355,10.2096774 C12.5193548,10.2870968 12.5419355,10.3064516 12.6193548,10.3064516 C13.0903226,10.3032258 13.5612903,10.3032258 14.0322581,10.3032258 L14.3806452,10.3032258 C14.7419355,10.3032258 15.1032258,10.3032258 15.4612903,10.3064516 C15.5290323,10.3064516 15.5580645,10.2870968 15.5451613,10.2193548 C15.5354839,10.1548387 15.5354839,10.0903226 15.5225806,10.0290323 C15.4516129,9.66774194 15.3064516,9.34193548 14.9935484,9.12903226 L14.9935484,9.12903226 Z M17.3258065,11.4322581 C17.3225806,11.5290323 17.2709677,11.5387097 17.1935484,11.5387097 C16.4354839,11.5354839 15.6774194,11.5387097 14.9193548,11.5387097 C14.1645161,11.5387097 13.4096774,11.5387097 12.6548387,11.5354839 L12.5612903,11.5354839 C12.5516129,11.5451613 12.5483871,11.5483871 12.5387097,11.5580645 C12.5387097,11.583871 12.5387097,11.6064516 12.5419355,11.6322581 L12.5419355,11.6548387 C12.5483871,11.7483871 12.5580645,11.8387097 12.5741935,11.9290323 C12.5806452,11.9709677 12.5903226,12.0129032 12.6032258,12.0548387 C12.616129,12.1225806 12.6354839,12.1870968 12.6580645,12.2483871 C12.6935484,12.3354839 12.7354839,12.4225806 12.7870968,12.5 C12.7903226,12.5032258 12.7935484,12.5064516 12.7935484,12.5096774 C12.8193548,12.5483871 12.8483871,12.5870968 12.8774194,12.6225806 C12.9064516,12.6580645 12.9387097,12.6935484 12.9741935,12.7258065 C12.9774194,12.7290323 12.9806452,12.7322581 12.983871,12.7354839 C13.0677419,12.8129032 13.1580645,12.8806452 13.2548387,12.9322581 C13.2774194,12.9451613 13.3,12.9580645 13.3258065,12.9709677 C13.4064516,13.0096774 13.4903226,13.0419355 13.5774194,13.0645161 C13.6064516,13.0741935 13.6354839,13.0806452 13.6677419,13.0870968 C13.7032258,13.0967742 13.7387097,13.1032258 13.7774194,13.1096774 C13.7870968,13.1096774 13.7935484,13.1129032 13.8032258,13.1129032 C14.0741935,13.1580645 14.3419355,13.1612903 14.6064516,13.1129032 L14.6548387,13.1032258 C14.7032258,13.0935484 14.7548387,13.0806452 14.8032258,13.0677419 C14.8612903,13.0516129 14.9193548,13.0322581 14.9741935,13.0096774 C14.9806452,13.0096774 14.9903226,13.0064516 14.9967742,13.0032258 C15.0193548,12.9935484 15.0419355,12.983871 15.0612903,12.9709677 C15.0677419,12.9709677 15.0741935,12.9677419 15.0806452,12.9645161 C15.0967742,12.9580645 15.1096774,12.9516129 15.1225806,12.9419355 C15.3516129,12.8290323 15.5064516,12.6612903 15.5870968,12.4322581 C15.6096774,12.3806452 15.6225806,12.3225806 15.6354839,12.2612903 L15.6354839,12.2580645 C15.6387097,12.2387097 15.6419355,12.2225806 15.6483871,12.2096774 C15.6548387,12.1967742 15.6645161,12.1870968 15.6741935,12.1774194 C15.6935484,12.1612903 15.7193548,12.1548387 15.7580645,12.1548387 C15.8419355,12.1548387 15.9774194,12.1903226 16.1903226,12.2129032 C16.4774194,12.2451613 16.7709677,12.2193548 17.0548387,12.1677419 C17.0967742,12.1580645 17.1258065,12.1548387 17.1516129,12.1548387 C17.1806452,12.1548387 17.2032258,12.1580645 17.216129,12.1709677 C17.2258065,12.1709677 17.2322581,12.1774194 17.2354839,12.183871 C17.2387097,12.1870968 17.2419355,12.1903226 17.2419355,12.1935484 C17.2548387,12.2096774 17.2580645,12.2290323 17.2580645,12.2580645 L17.2580645,12.2741935 C17.2548387,12.3516129 17.2483871,12.4290323 17.2387097,12.5 C17.2290323,12.5612903 17.2193548,12.6193548 17.2096774,12.6774194 C17.1967742,12.7419355 17.183871,12.8064516 17.1645161,12.8677419 C17.1483871,12.9290323 17.1290323,12.9870968 17.1064516,13.0451613 C17.0774194,13.1290323 17.0419355,13.2096774 17.0032258,13.283871 C16.9645161,13.3612903 16.9193548,13.4322581 16.8709677,13.5032258 C16.7935484,13.616129 16.7,13.7225806 16.5967742,13.816129 C16.5709677,13.8419355 16.5451613,13.8645161 16.516129,13.8903226 C16.4548387,13.9419355 16.3903226,13.9903226 16.3225806,14.0354839 C16.2741935,14.0709677 16.2193548,14.1032258 16.1645161,14.1354839 C16.0677419,14.1903226 15.9645161,14.2419355 15.8516129,14.2903226 C15.8096774,14.3064516 15.7677419,14.3258065 15.7258065,14.3419355 C15.683871,14.3580645 15.6387097,14.3741935 15.5935484,14.3870968 C15.583871,14.3903226 15.5741935,14.3935484 15.5612903,14.3967742 C15.4967742,14.4193548 15.4290323,14.4387097 15.3580645,14.4580645 C15.3064516,14.4709677 15.2580645,14.483871 15.2064516,14.4935484 C15.1064516,14.516129 15.0032258,14.5354839 14.9,14.5483871 C14.8258065,14.5612903 14.7516129,14.5677419 14.6741935,14.5774194 C14.5903226,14.583871 14.5032258,14.5903226 14.416129,14.5935484 C14.3806452,14.5935484 14.3419355,14.5967742 14.3064516,14.5967742 C13.7709677,14.6096774 13.2387097,14.5645161 12.7225806,14.4 C11.6774194,14.0612903 11.0129032,13.3451613 10.7258065,12.2935484 C10.3870968,11.0548387 10.5870968,9.89354839 11.3032258,8.83548387 C11.7322581,8.20645161 12.3483871,7.82903226 13.0870968,7.65806452 C13.7612903,7.5 14.4419355,7.49354839 15.116129,7.65806452 C16.1129032,7.90645161 16.7548387,8.53870968 17.0935484,9.49677419 C17.316129,10.1225806 17.3516129,10.7741935 17.3258065,11.4322581 L17.3258065,11.4322581 Z M10.0967742,12.5290323 C10.0806452,12.5903226 10.0612903,12.6483871 10.0419355,12.7064516 C10.0225806,12.7645161 10.0032258,12.8225806 9.97741935,12.8774194 C9.95483871,12.9322581 9.93225806,12.983871 9.90322581,13.0354839 C9.87741935,13.0870968 9.8483871,13.1354839 9.81935484,13.183871 C9.79032258,13.2322581 9.76129032,13.2774194 9.72903226,13.3193548 C9.69354839,13.3709677 9.65806452,13.416129 9.61612903,13.4645161 C9.58064516,13.5032258 9.54516129,13.5419355 9.50645161,13.5806452 C9.46774194,13.6193548 9.42580645,13.6580645 9.38387097,13.6935484 C9.2483871,13.8129032 9.1,13.9129032 8.93548387,14 C8.84516129,14.0483871 8.75483871,14.0903226 8.65806452,14.1322581 C8.6516129,14.1354839 8.64193548,14.1387097 8.63548387,14.1419355 C8.58064516,14.1612903 8.52580645,14.183871 8.46774194,14.2032258 C8.40967742,14.2225806 8.3483871,14.2419355 8.28709677,14.2612903 C8.23548387,14.2741935 8.18064516,14.2903226 8.12580645,14.3032258 C8.09677419,14.3096774 8.06774194,14.316129 8.03548387,14.3225806 C7.87741935,14.3548387 7.71935484,14.3774194 7.55806452,14.3903226 C7.50322581,14.3935484 7.4483871,14.3967742 7.39354839,14.4 C7.33870968,14.4032258 7.28387097,14.4032258 7.22903226,14.4032258 L2.64516129,14.4032258 C2.59354839,14.4032258 2.56129032,14.4032258 2.53870968,14.3967742 C2.53225806,14.3935484 2.52580645,14.3935484 2.52258065,14.3870968 C2.49677419,14.3709677 2.49677419,14.3354839 2.49677419,14.2516129 L2.49677419,5.36129032 C2.49677419,5.26451613 2.49677419,5.22903226 2.53225806,5.21612903 C2.53870968,5.21290323 2.5483871,5.20967742 2.55483871,5.20967742 C2.57741935,5.20645161 2.60645161,5.20645161 2.64516129,5.20645161 C4.26451613,5.20645161 5.88387097,5.19677419 7.50322581,5.21290323 C8.16129032,5.21935484 8.76129032,5.43870968 9.24193548,5.91612903 C9.60967742,6.28387097 9.79354839,6.73870968 9.85806452,7.2516129 C9.90322581,7.61935484 9.89677419,7.98387097 9.78064516,8.33870968 C9.59677419,8.9 9.19677419,9.22580645 8.63548387,9.37419355 C8.61935484,9.37741935 8.6,9.38387097 8.58064516,9.39032258 C8.57419355,9.39032258 8.56451613,9.39677419 8.5516129,9.40322581 C9.02903226,9.41935484 9.42580645,9.59354839 9.72258065,9.96129032 C9.93548387,10.2258065 10.0548387,10.5354839 10.1258065,10.8645161 C10.2419355,11.4193548 10.2451613,11.9774194 10.0967742,12.5290323 L10.0967742,12.5290323 Z M12.2354839,5.7483871 L15.8032258,5.7483871 C15.8870968,5.7483871 15.9193548,5.77096774 15.916129,5.85806452 C15.9129032,6.1516129 15.9129032,6.44516129 15.9193548,6.73870968 C15.9193548,6.82903226 15.8903226,6.86129032 15.7967742,6.86129032 C15.2064516,6.85806452 14.616129,6.85806452 14.0258065,6.85806452 L12.2548387,6.85806452 C12.2096774,6.85806452 12.1806452,6.85806452 12.1612903,6.8516129 L12.1580645,6.8516129 C12.1516129,6.84193548 12.1419355,6.83225806 12.1322581,6.82580645 L12.1322581,6.82258065 C12.1258065,6.80322581 12.1258065,6.77419355 12.1258065,6.72903226 C12.1225806,6.43870968 12.1258065,6.1483871 12.1225806,5.85806452 C12.1225806,5.77741935 12.1483871,5.7483871 12.2354839,5.7483871 L12.2354839,5.7483871 Z M19.8064516,1.88064516 C19.8032258,0.841935484 18.9645161,0.00322580645 17.9258065,0.00322580645 C14.4870968,0.00322580645 7.05806452,0.00322580645 1.88064516,0 C0.841935484,0 0,0.841935484 0,1.88064516 C0.00322580645,7.22580645 0.00322580645,12.6032258 0.00322580645,17.9451613 C0.00322580645,18.983871 0.841935484,19.8225806 1.88064516,19.8225806 C7.11290323,19.8225806 12.7193548,19.8225806 17.9451613,19.8258065 C18.983871,19.8258065 19.8225806,18.983871 19.8225806,17.9451613 C19.8193548,13.3709677 19.8096774,5.47096774 19.8064516,1.88064516 L19.8064516,1.88064516 Z M4.69677419,8.89032258 C5.53225806,8.88709677 6.36774194,8.89032258 7.20322581,8.88387097 C7.54516129,8.88387097 7.76129032,8.71290323 7.86129032,8.38387097 C7.93225806,8.13548387 7.93870968,7.88064516 7.92258065,7.62580645 C7.91612903,7.49354839 7.89032258,7.36451613 7.83225806,7.24193548 C7.70967742,6.98387097 7.51612903,6.82903226 7.21290323,6.83225806 C6.80645161,6.83548387 6.4,6.83225806 5.99677419,6.83225806 C5.56451613,6.83225806 5.13225806,6.83225806 4.7,6.82903226 C4.62258065,6.82903226 4.59032258,6.8483871 4.59032258,6.93225806 C4.59354839,7.5516129 4.59354839,8.16774194 4.59032258,8.78709677 C4.59032258,8.86774194 4.61935484,8.89032258 4.69677419,8.89032258 L4.69677419,8.89032258 Z M8.22903226,11.2387097 C8.15806452,10.6645161 7.75483871,10.3032258 7.17741935,10.3 L4.72903226,10.3 C4.59354839,10.3032258 4.59354839,10.3032258 4.59354839,10.4354839 L4.59354839,12.6225806 C4.59354839,12.7741935 4.59354839,12.7741935 4.74516129,12.7741935 L7.08709677,12.7741935 C7.18064516,12.7774194 7.27419355,12.7677419 7.36451613,12.7548387 C7.83548387,12.683871 8.10967742,12.4258065 8.21290323,11.9612903 C8.26774194,11.7225806 8.25806452,11.4806452 8.22903226,11.2387097 L8.22903226,11.2387097 Z M15.5225806,10.0290323 C15.4516129,9.66774194 15.3064516,9.34193548 14.9935484,9.12903226 C14.5483871,8.82903226 14.0580645,8.81612903 13.5677419,8.98064516 C12.983871,9.17741935 12.6935484,9.63870968 12.5419355,10.2096774 C12.5193548,10.2870968 12.5419355,10.3064516 12.6193548,10.3064516 C13.0903226,10.3032258 13.5612903,10.3032258 14.0322581,10.3032258 L14.3806452,10.3032258 C14.7419355,10.3032258 15.1032258,10.3032258 15.4612903,10.3064516 C15.5290323,10.3064516 15.5580645,10.2870968 15.5451613,10.2193548 C15.5354839,10.1548387 15.5354839,10.0903226 15.5225806,10.0290323 L15.5225806,10.0290323 Z M15.5225806,10.0290323 C15.4516129,9.66774194 15.3064516,9.34193548 14.9935484,9.12903226 C14.5483871,8.82903226 14.0580645,8.81612903 13.5677419,8.98064516 C12.983871,9.17741935 12.6935484,9.63870968 12.5419355,10.2096774 C12.5193548,10.2870968 12.5419355,10.3064516 12.6193548,10.3064516 C13.0903226,10.3032258 13.5612903,10.3032258 14.0322581,10.3032258 L14.3806452,10.3032258 C14.7419355,10.3032258 15.1032258,10.3032258 15.4612903,10.3064516 C15.5290323,10.3064516 15.5580645,10.2870968 15.5451613,10.2193548 C15.5354839,10.1548387 15.5354839,10.0903226 15.5225806,10.0290323 L15.5225806,10.0290323 Z M8.22903226,11.2387097 C8.15806452,10.6645161 7.75483871,10.3032258 7.17741935,10.3 L4.72903226,10.3 C4.59354839,10.3032258 4.59354839,10.3032258 4.59354839,10.4354839 L4.59354839,12.6225806 C4.59354839,12.7741935 4.59354839,12.7741935 4.74516129,12.7741935 L7.08709677,12.7741935 C7.18064516,12.7774194 7.27419355,12.7677419 7.36451613,12.7548387 C7.83548387,12.683871 8.10967742,12.4258065 8.21290323,11.9612903 C8.26774194,11.7225806 8.25806452,11.4806452 8.22903226,11.2387097 L8.22903226,11.2387097 Z M7.92258065,7.62580645 C7.91612903,7.49354839 7.89032258,7.36451613 7.83225806,7.24193548 C7.70967742,6.98387097 7.51612903,6.82903226 7.21290323,6.83225806 C6.80645161,6.83548387 6.4,6.83225806 5.99677419,6.83225806 C5.56451613,6.83225806 5.13225806,6.83225806 4.7,6.82903226 C4.62258065,6.82903226 4.59032258,6.8483871 4.59032258,6.93225806 C4.59354839,7.5516129 4.59354839,8.16774194 4.59032258,8.78709677 C4.59032258,8.86774194 4.61935484,8.89032258 4.69677419,8.89032258 C5.53225806,8.88709677 6.36774194,8.89032258 7.20322581,8.88387097 C7.54516129,8.88387097 7.76129032,8.71290323 7.86129032,8.38387097 C7.93225806,8.13548387 7.93870968,7.88064516 7.92258065,7.62580645 L7.92258065,7.62580645 Z M12.1258065,6.81612903 L12.1322581,6.82258065 C12.1258065,6.80322581 12.1258065,6.77419355 12.1258065,6.72903226 L12.1258065,6.81612903 Z M12.1451613,5.7483871 C12.1354839,5.75806452 12.1322581,5.76129032 12.1225806,5.77096774 L12.1225806,5.85806452 C12.1225806,5.77741935 12.1483871,5.7483871 12.2354839,5.7483871 L12.1451613,5.7483871 Z M12.1677419,6.85806452 L12.2548387,6.85806452 C12.2096774,6.85806452 12.1806452,6.85806452 12.1612903,6.8516129 L12.1677419,6.85806452 Z M15.7967742,6.86129032 L15.8870968,6.86129032 C15.9,6.8483871 15.9064516,6.84193548 15.9193548,6.82903226 L15.9193548,6.73870968 C15.9193548,6.82903226 15.8903226,6.86129032 15.7967742,6.86129032 L15.7967742,6.86129032 Z M15.5225806,10.0290323 C15.4516129,9.66774194 15.3064516,9.34193548 14.9935484,9.12903226 C14.5483871,8.82903226 14.0580645,8.81612903 13.5677419,8.98064516 C12.983871,9.17741935 12.6935484,9.63870968 12.5419355,10.2096774 C12.5193548,10.2870968 12.5419355,10.3064516 12.6193548,10.3064516 C13.0903226,10.3032258 13.5612903,10.3032258 14.0322581,10.3032258 L14.3806452,10.3032258 C14.7419355,10.3032258 15.1032258,10.3032258 15.4612903,10.3064516 C15.5290323,10.3064516 15.5580645,10.2870968 15.5451613,10.2193548 C15.5354839,10.1548387 15.5354839,10.0903226 15.5225806,10.0290323 L15.5225806,10.0290323 Z M15.1225806,12.9419355 C15.3516129,12.8290323 15.5064516,12.6612903 15.5870968,12.4322581 C15.5032258,12.6516129 15.3322581,12.8290323 15.1225806,12.9419355 L15.1225806,12.9419355 Z M2.49677419,14.2516129 L2.49677419,5.38064516 C2.49354839,8.33548387 2.47741935,11.2967742 2.49677419,14.2516129 L2.49677419,14.2516129 Z M7.55806452,14.3903226 C7.71935484,14.3806452 7.88064516,14.3612903 8.03548387,14.3225806 C7.87741935,14.3548387 7.71935484,14.3774194 7.55806452,14.3903226 L7.55806452,14.3903226 Z M7.92258065,7.62580645 C7.91612903,7.49354839 7.89032258,7.36451613 7.83225806,7.24193548 C7.70967742,6.98387097 7.51612903,6.82903226 7.21290323,6.83225806 C6.80645161,6.83548387 6.4,6.83225806 5.99677419,6.83225806 C5.56451613,6.83225806 5.13225806,6.83225806 4.7,6.82903226 C4.62258065,6.82903226 4.59032258,6.8483871 4.59032258,6.93225806 C4.59354839,7.5516129 4.59354839,8.16774194 4.59032258,8.78709677 C4.59032258,8.86774194 4.61935484,8.89032258 4.69677419,8.89032258 C5.53225806,8.88709677 6.36774194,8.89032258 7.20322581,8.88387097 C7.54516129,8.88387097 7.76129032,8.71290323 7.86129032,8.38387097 C7.93225806,8.13548387 7.93870968,7.88064516 7.92258065,7.62580645 L7.92258065,7.62580645 Z M8.22903226,11.2387097 C8.15806452,10.6645161 7.75483871,10.3032258 7.17741935,10.3 L4.72903226,10.3 C4.59354839,10.3032258 4.59354839,10.3032258 4.59354839,10.4354839 L4.59354839,12.6225806 C4.59354839,12.7741935 4.59354839,12.7741935 4.74516129,12.7741935 L7.08709677,12.7741935 C7.18064516,12.7774194 7.27419355,12.7677419 7.36451613,12.7548387 C7.83548387,12.683871 8.10967742,12.4258065 8.21290323,11.9612903 C8.26774194,11.7225806 8.25806452,11.4806452 8.22903226,11.2387097 L8.22903226,11.2387097 Z" id="Fill-1"></path>
                    <path d="M8.46774194,14.2074527 C8.48153504,14.2040044 8.49877642,14.2005562 8.51256952,14.1936596 L8.64705228,14.1419355 C8.58843159,14.1626251 8.5298109,14.1867631 8.46774194,14.2074527" id="Fill-3"></path>
                    <path d="M15.7580645,12.1548387 C15.8419355,12.1548387 15.9774194,12.1903226 16.1903226,12.2129032 C16.4774194,12.2451613 16.7709677,12.2193548 17.0548387,12.1677419 C17.0967742,12.1580645 17.1258065,12.1548387 17.1516129,12.1548387 C16.6870968,12.1580645 16.2225806,12.1580645 15.7580645,12.1548387 L15.7580645,12.1548387 Z M14.9741935,13.0096774 C14.9806452,13.0096774 14.9903226,13.0064516 14.9967742,13.0032258 C15.0193548,12.9935484 15.0419355,12.983871 15.0612903,12.9709677 C15.0322581,12.9870968 15.0032258,12.9967742 14.9741935,13.0096774 L14.9741935,13.0096774 Z M12.5612903,11.5354839 C12.5516129,11.5451613 12.5483871,11.5483871 12.5387097,11.5580645 C12.5387097,11.583871 12.5387097,11.6064516 12.5419355,11.6322581 C12.5451613,11.5580645 12.5709677,11.5354839 12.6516129,11.5354839 L12.5612903,11.5354839 Z" id="Fill-5"></path>
                    <path d="M5.98567742,10.3013226 C6.38245161,10.3013226 6.77922581,10.301 7.176,10.3013226 C7.75374194,10.3019677 8.15729032,10.6632581 8.22793548,11.2400323 C8.25729032,11.4813226 8.26664516,11.7222903 8.21374194,11.9613226 C8.11116129,12.4251935 7.83406452,12.6822903 7.366,12.7539032 C7.27374194,12.7680968 7.18116129,12.7758387 7.08696774,12.7758387 C6.30632258,12.7745484 5.52567742,12.7751935 4.74535484,12.7751935 C4.59277419,12.7751935 4.59212903,12.774871 4.59212903,12.6213226 C4.59212903,11.8922903 4.59212903,11.1632581 4.59245161,10.4342258 C4.59245161,10.3026129 4.59341935,10.3016452 4.7276129,10.3016452 C5.14696774,10.301 5.56632258,10.3013226 5.98567742,10.3013226" id="Fill-7"></path>
                    <path d="M5.99535484,6.8336129 C6.40148387,6.8336129 6.8076129,6.83683871 7.21374194,6.83264516 C7.516,6.82941935 7.70987097,6.98329032 7.83309677,7.24296774 C7.89019355,7.36329032 7.91535484,7.49329032 7.92374194,7.62619355 C7.94019355,7.88135484 7.93374194,8.13522581 7.86051613,8.38264516 C7.76212903,8.71425806 7.54664516,8.88329032 7.20180645,8.88490323 C6.36696774,8.88941935 5.53245161,8.88716129 4.6976129,8.89070968 C4.61890323,8.89103226 4.59083871,8.86845161 4.59116129,8.78780645 C4.59374194,8.16909677 4.59374194,7.55006452 4.59116129,6.93135484 C4.59083871,6.84845161 4.62341935,6.83006452 4.69987097,6.83070968 C5.13148387,6.8336129 5.56341935,6.832 5.99535484,6.832 L5.99535484,6.8336129" id="Fill-9"></path>
                    <path d="M14.0315806,10.3047097 C13.5609355,10.3047097 13.0902903,10.3030968 12.6199677,10.3063226 C12.5406129,10.3066452 12.5202903,10.2876129 12.5412581,10.2085806 C12.6922258,9.63922581 12.9831935,9.17858065 13.5664194,8.98180645 C14.0564194,8.81632258 14.5470645,8.82825806 14.9925484,9.12858065 C15.3077097,9.34148387 15.4522258,9.66632258 15.522871,10.0285806 C15.5354516,10.0914839 15.5367419,10.1563226 15.5467419,10.219871 C15.5570645,10.2882581 15.5302903,10.3066452 15.4625484,10.306 C15.1015806,10.3030968 14.7406129,10.3047097 14.3796452,10.3047097 L14.0315806,10.3047097" id="Fill-11"></path>
                </g>
            </g>
        </g>
    </g>
</svg>