<svg width="20px" height="20px" viewBox="0 0 20 20" version="1.1" xmlns="http://www.w3.org/2000/svg" xmlns:xlink="http://www.w3.org/1999/xlink">
    <g id="Home" stroke="none" stroke-width="1" fill="none" fill-rule="evenodd" transform="translate(-15.000000, -416.000000)">
        <g id="Icon" transform="translate(15.000000, 366.000000)" fill="#7826E2">
            <g id="Db" transform="translate(0.000000, 50.000000)">
                <path d="M12.9638095,10.79 C13.635873,12.7398413 14.0901587,14.742381 14.3273016,16.797619 C15.368254,16.125873 16.2180952,15.2626984 16.8768254,14.2087302 C17.5355556,13.1547619 17.9307937,12.0150794 18.0625397,10.79 C17.1006349,10.7242857 16.2244444,10.6912698 15.4339683,10.6912698 C14.7095238,10.6912698 13.8860317,10.7242857 12.9638095,10.79 M11.7977778,7.80587302 C11.9955556,8.22746032 12.2193651,8.76111111 12.4698413,9.4068254 C13.4447619,9.31444444 14.5050794,9.2684127 15.6514286,9.2684127 C16.468254,9.2684127 17.2784127,9.28809524 18.0822222,9.32777778 C17.9768254,7.53571429 17.3311111,5.94174603 16.1453968,4.5452381 C15.2892063,5.82333333 13.84,6.91 11.7977778,7.80587302 M7.86507937,1.91698413 C9.0247619,3.11571429 10.0984127,4.61095238 11.0863492,6.40269841 C12.8780952,5.65190476 14.2285714,4.69666667 15.1377778,3.53730159 C13.6095238,2.27253968 11.8571429,1.64015873 9.88095238,1.64015873 C9.20920635,1.64015873 8.53714286,1.73253968 7.86507937,1.91698413 M4.8415873,16.3826984 C6.33047619,17.5420635 8.01015873,18.121746 9.88095238,18.121746 C10.855873,18.121746 11.824127,17.9373016 12.7860317,17.5684127 C12.5225397,15.3153968 12.0085714,13.1350794 11.2444444,11.0271429 C10.032381,11.2906349 8.81047619,11.9560317 7.57873016,13.0230159 C6.34698413,14.0903175 5.43460317,15.21 4.8415873,16.3826984 M1.89714286,7.84555556 C2.18698413,7.87190476 2.6152381,7.88492063 3.1815873,7.88492063 C5.38190476,7.88492063 7.47015873,7.5884127 9.44634921,6.99571429 C8.44507937,5.21698413 7.3447619,3.73507937 6.14603175,2.54936508 C5.10507937,3.07634921 4.21269841,3.80746032 3.46825397,4.74301587 C2.72380952,5.67825397 2.20031746,6.71253968 1.89714286,7.84555556 M1.64031746,9.88111111 C1.64031746,11.9363492 2.33206349,13.7477778 3.7152381,15.3153968 C4.34761905,14.0769841 5.34888889,12.8979365 6.71904762,11.778254 C8.08920635,10.658254 9.42634921,9.95349206 10.7307937,9.66365079 C10.5330159,9.20238095 10.3422222,8.78746032 10.1577778,8.41857143 C7.89174603,9.14333333 5.44126984,9.50555556 2.80634921,9.50555556 C2.29238095,9.50555556 1.91047619,9.49888889 1.66,9.48587302 C1.66,9.53857143 1.6568254,9.60428571 1.65015873,9.68333333 C1.64349206,9.76238095 1.64031746,9.82809524 1.64031746,9.88111111 M0,9.88111111 C0,8.08904762 0.441269841,6.43571429 1.32412698,4.92079365 C2.20666667,3.40555556 3.40571429,2.2068254 4.92063492,1.32396825 C6.43587302,0.441428571 8.08920635,0.000158730159 9.88095238,0.000158730159 C11.6726984,0.000158730159 13.3260317,0.441428571 14.8412698,1.32396825 C16.3561905,2.2068254 17.5552381,3.40555556 18.4377778,4.92079365 C19.3206349,6.43571429 19.7619048,8.08904762 19.7619048,9.88111111 C19.7619048,11.6728571 19.3206349,13.3261905 18.4377778,14.8411111 C17.5552381,16.3563492 16.3561905,17.5550794 14.8412698,18.4379365 C13.3260317,19.3204762 11.6726984,19.7620635 9.88095238,19.7620635 C8.08920635,19.7620635 6.43587302,19.3204762 4.92063492,18.4379365 C3.40571429,17.5550794 2.20666667,16.3563492 1.32412698,14.8411111 C0.441269841,13.3261905 0,11.6728571 0,9.88111111" id="Fill-1"></path>
            </g>
        </g>
    </g>
</svg>