<?xml version="1.0" encoding="UTF-8"?>
<svg width="18px" height="10px" viewBox="0 0 18 10" version="1.1" xmlns="http://www.w3.org/2000/svg" xmlns:xlink="http://www.w3.org/1999/xlink">
    <!-- Generator: Sketch 48.2 (47327) - http://www.bohemiancoding.com/sketch -->
    <title>Group</title>
    <desc>Created with Sketch.</desc>
    <defs></defs>
    <g id="Vacancy" stroke="none" stroke-width="1" fill="none" fill-rule="evenodd" transform="translate(-362.000000, -976.000000)">
        <g id="News_1" transform="translate(198.000000, 577.000000)" fill="#A48900">
            <g id="Group" transform="translate(164.000000, 399.000000)">
                <path d="M17.6463529,4.92631454 C17.646,4.91894612 17.6452941,4.91192858 17.6447647,4.9047356 C17.6444118,4.90105139 17.6442353,4.89736718 17.6438824,4.8938584 C17.6433529,4.88859525 17.6424706,4.88333209 17.6417647,4.87824437 C17.6410588,4.87210402 17.6403529,4.86596367 17.6392941,4.85999875 C17.6391176,4.859297 17.6389412,4.85841981 17.6389412,4.85771805 C17.6172353,4.72210402 17.553,4.59491104 17.4545294,4.4970163 C16.8915882,3.83368296 16.2218824,3.24333209 15.5408824,2.70420928 C14.0742353,1.54245489 12.3968824,0.57052507 10.5453529,0.179297 C9.47523529,-0.0466679122 8.39841176,-0.056317035 7.32264706,0.134911035 C6.34411765,0.308946123 5.40105882,0.670700509 4.51835294,1.11912156 C3.13676471,1.82087595 1.875,2.78841981 0.775588235,3.87315665 C0.572117647,4.0738584 0.369705882,4.27877068 0.184764706,4.49684086 C-0.0615882353,4.7870163 -0.0615882353,5.13070051 0.184764706,5.42087595 C0.747705882,6.08420928 1.41741176,6.67438472 2.09841176,7.21368296 C3.56523529,8.37543735 5.24258824,9.34719174 7.09411765,9.73841981 C8.16423529,9.96456016 9.24123529,9.97420928 10.317,9.78298121 C11.2953529,9.60894612 12.2384118,9.24719174 13.1212941,8.79877068 C14.5028824,8.09684086 15.7646471,7.12947244 16.8640588,6.0447356 C17.0675294,5.8438584 17.2699412,5.63912156 17.4548824,5.42105139 C17.5533529,5.32298121 17.6175882,5.19596367 17.6392941,5.06017419 C17.6392941,5.05947244 17.6394706,5.05859525 17.6396471,5.05789349 C17.6407059,5.05175314 17.6414118,5.04578823 17.6421176,5.03964788 C17.6428235,5.03456016 17.6437059,5.029297 17.6442353,5.02403384 C17.6445882,5.02034963 17.6447647,5.01684086 17.6451176,5.01315665 C17.6456471,5.00613911 17.6463529,4.99912156 17.6467059,4.99175314 C17.6472353,4.98087595 17.6475882,4.96999875 17.6475882,4.95894612 C17.6475882,4.94789349 17.6468824,4.93719174 17.6463529,4.92631454 L17.6463529,4.92631454 Z M8.82370588,8.33456016 C6.94835294,8.33456016 5.42823529,6.82333209 5.42823529,4.95894612 C5.42823529,3.0947356 6.94835294,1.58333209 8.82370588,1.58333209 C10.6990588,1.58333209 12.2191765,3.09456016 12.2191765,4.95894612 C12.2191765,6.82333209 10.6990588,8.33456016 8.82370588,8.33456016 L8.82370588,8.33456016 Z" id="Shape-Copy" transform="translate(8.823794, 4.958937) scale(-1, -1) translate(-8.823794, -4.958937) "></path>
                <ellipse id="Oval-Copy" transform="translate(9.123941, 5.117368) scale(-1, -1) translate(-9.123941, -5.117368) " cx="9.12394118" cy="5.11736842" rx="1.12394118" ry="1.11736842"></ellipse>
            </g>
        </g>
    </g>
</svg>