<?xml version="1.0" encoding="UTF-8"?>
<svg width="20px" height="20px" viewBox="0 0 20 20" version="1.1" xmlns="http://www.w3.org/2000/svg" xmlns:xlink="http://www.w3.org/1999/xlink">
    <!-- Generator: Sketch 48.2 (47327) - http://www.bohemiancoding.com/sketch -->
    <title>Fill 1</title>
    <desc>Created with Sketch.</desc>
    <defs></defs>
    <g id="Home" stroke="none" stroke-width="1" fill="none" fill-rule="evenodd" transform="translate(-1245.000000, -366.000000)">
        <g id="Icon" transform="translate(15.000000, 366.000000)" fill="#7826E2">
            <g id="Fb" transform="translate(1230.000000, 0.000000)">
                <path d="M13.7361011,19.9317978 L13.7361011,11.5082022 C14.5175618,11.5082022 15.2949775,11.4892135 16.0708202,11.5162921 C16.4471124,11.5295506 16.5899213,11.4361798 16.6245281,11.031236 C16.7037416,10.1035955 16.8523933,9.18202247 16.9792472,8.2094382 L13.739809,8.2094382 C13.739809,7.32539326 13.6889101,6.48280899 13.7546404,5.6494382 C13.8158764,4.87325843 14.2955393,4.52370787 15.1665506,4.49853933 C15.7825056,4.48078652 16.3993596,4.49516854 17.0545281,4.49516854 L17.0545281,1.53359551 C15.7558764,1.44404494 14.467,1.25494382 13.1903708,1.59101124 C11.6003708,2.00966292 10.5359888,3.23595506 10.3855393,4.86719101 C10.3028427,5.76449438 10.3236292,6.67146067 10.2999213,7.5741573 C10.2948652,7.76651685 10.2991348,7.95910112 10.2991348,8.20269663 L8.8722809,8.20269663 L7.50329213,8.20269663 L7.50329213,11.4830337 L10.2664382,11.4830337 L10.2664382,19.9317978 L9.78205618,19.9317978 C7.25014607,19.9317978 4.7181236,19.9331461 2.18610112,19.931236 C0.770820225,19.9302247 0.00171910112,19.1660674 0.00126966292,17.7574157 C-0.000303370787,12.5577528 -0.000528089888,7.35808989 0.00138202247,2.15853933 C0.00194382022,0.778089888 0.777674157,0.00191011236 2.15744944,0.00134831461 C7.357,-0.000561797753 12.5566629,-0.000337078652 17.7562135,0.00123595506 C19.1658764,0.00157303371 19.9309326,0.77011236 19.9312697,2.18494382 C19.932618,7.3694382 19.932618,12.5539326 19.931382,17.7385393 C19.9310449,19.1750562 19.1678989,19.93 17.7200337,19.9314607 C16.4104831,19.932809 15.1009326,19.9317978 13.7361011,19.9317978" id="Fill-1"></path>
            </g>
        </g>
    </g>
</svg>