<?xml version="1.0" encoding="UTF-8"?>
<svg width="20px" height="20px" viewBox="0 0 20 20" version="1.1" xmlns="http://www.w3.org/2000/svg" xmlns:xlink="http://www.w3.org/1999/xlink">
    <!-- Generator: Sketch 48.2 (47327) - http://www.bohemiancoding.com/sketch -->
    <title>Page 1</title>
    <desc>Created with Sketch.</desc>
    <defs></defs>
    <g id="Home" stroke="none" stroke-width="1" fill="none" fill-rule="evenodd" transform="translate(-1245.000000, -416.000000)">
        <g id="Icon" transform="translate(15.000000, 366.000000)" fill="#7826E2">
            <g id="In" transform="translate(1230.000000, 50.000000)">
                <path d="M16.8918928,16.8208652 C15.9922095,16.8141007 15.0925262,16.8141007 14.1917154,16.8197378 C14.0496601,16.8208652 14.0113278,16.7791506 14.0124552,16.6382227 C14.0169649,15.1060552 14.0158375,13.5738878 14.0135826,12.0417203 C14.0135826,11.5896238 13.9831422,11.1442918 13.79599,10.7203808 C13.5366828,10.1318662 13.0654201,9.88834287 12.4498473,9.90299937 C11.563693,9.9244204 10.8545441,10.6110208 10.8376328,11.4971751 C10.8139569,12.7666531 10.8252312,14.0361311 10.8218489,15.3056091 C10.8207215,15.7610878 10.819594,16.2165666 10.8229763,16.6720454 C10.8229763,16.7690038 10.8015553,16.8186104 10.6899404,16.8174829 C9.75192472,16.8141007 8.81390901,16.8152281 7.87702073,16.8152281 C7.85109,16.8152281 7.82515928,16.809591 7.78908175,16.8050813 L7.78908175,7.73383804 C7.84770774,7.73045577 7.89956918,7.72594608 7.95143063,7.72594608 C8.85224139,7.72481866 9.75192472,7.72820093 10.6516081,7.72256381 C10.7846439,7.72143639 10.8297408,7.75864134 10.8252312,7.89393207 C10.8162118,8.1881894 10.8229763,8.48357415 10.8229763,8.77783149 C10.8229763,8.82969293 10.827486,8.88042695 10.8308683,8.94807232 C11.0416963,8.71244097 11.2187017,8.48357415 11.4284023,8.28627518 C12.0349557,7.7169267 12.7779273,7.50609865 13.5941814,7.51511803 C14.2807818,7.52188257 14.9324321,7.66844752 15.5141823,8.05289867 C16.1477938,8.4711725 16.5457741,9.06419686 16.7870425,9.77334575 C16.9933609,10.3787718 17.0632611,11.0056188 17.0655159,11.6403578 C17.0722805,13.3055612 17.0666434,14.9718919 17.0711531,16.6382227 C17.0711531,16.7791506 17.0362029,16.8208652 16.8918928,16.8208652 L16.8918928,16.8208652 Z M5.27943877,6.36289201 C4.74729524,6.55342645 4.21740656,6.53538768 3.7033018,6.28622726 C3.07419992,5.98295055 2.72357145,5.16782392 2.93327208,4.50264451 C3.16326631,3.77432943 3.7134486,3.37973148 4.60974967,3.34365395 C5.20051918,3.35154591 5.75633858,3.55222715 6.09569282,4.15878058 C6.56695552,4.99871051 6.18701406,6.03706684 5.27943877,6.36289201 L5.27943877,6.36289201 Z M5.92770684,16.8208652 C5.0280235,16.8141007 4.12721274,16.8141007 3.22752941,16.8208652 C3.08547414,16.8208652 3.04714177,16.780278 3.04826919,16.6393502 C3.05165146,13.7249624 3.05052404,10.8105747 3.05052404,7.89505949 L3.05052404,7.73383804 L6.09343798,7.73383804 C6.09682024,7.79697371 6.10358478,7.85334485 6.10358478,7.90971599 C6.10358478,10.8184666 6.10245736,13.7283447 6.10696705,16.6370953 C6.10696705,16.7768957 6.07201694,16.8208652 5.92770684,16.8208652 L5.92770684,16.8208652 Z M19.9990699,2.19255535 C19.9990699,0.772002711 19.231295,0.000845567044 17.8163795,0.000845567044 C12.5986671,-0.000281855681 7.38208215,-0.000281855681 2.16436978,0.000845567044 C0.77989467,0.00197298977 0.00197298977,0.781022093 0.000845567044,2.1654972 C-0.000281855681,7.38320957 -0.000281855681,12.5997945 0.000845567044,17.8175069 C0.000845567044,19.231295 0.773130134,19.9979424 2.19368277,19.9990699 C3.91863954,20.0001973 16.8952751,20.0001973 17.7803019,19.9990699 C19.2324224,19.9979424 19.9990699,19.2403144 19.9990699,17.7983407 L19.9990699,2.19255535 Z" id="Page-1"></path>
            </g>
        </g>
    </g>
</svg>