<svg width="109px" height="99px" viewBox="0 0 109 99" version="1.1" xmlns="http://www.w3.org/2000/svg" xmlns:xlink="http://www.w3.org/1999/xlink">
    <g id="Static-Copy-3" stroke="none" stroke-width="1" fill="none" fill-rule="evenodd" transform="translate(-585.000000, -143.000000)">
        <g id="noun_792503_cc" transform="translate(585.000000, 143.000000)" fill-rule="nonzero">
            <g id="Group">
                <polygon id="Shape" fill="#000000" points="68.5528846 2.16419305 68.5528846 2.16419305 68.5540865 2.16177997"></polygon>
                <path d="M107.546875,38.2843409 L70.2944712,0.763334928 L21.8684241,48.9646212 L60.9189724,88.1244944 L107.550481,41.3067203 L108.857561,39.8395047 L107.546875,38.2843409 Z M102.127404,37.7981059 L73.5625,37.957369 L77.5913462,13.1678256 L102.127404,37.7981059 Z M58.9302885,81.151453 L34.3990385,56.525999 L59.0540865,52.4877141 L58.9302885,81.151453 Z M60.6165865,48.6834977 L60.3930288,48.7196938 L31.359375,53.4746627 L26.8665865,48.9646212 L70.0588942,5.60644785 L74.5516827,10.1164894 L68.4927885,47.3925013 L60.6165865,48.6834977 Z M62.4170673,81.6606124 L62.546875,51.9170213 L71.4070157,50.275259 L72.9927885,41.4635703 L102.625,41.2982745 L62.4170673,81.6606124 Z" id="Shape" fill="#FD5FAB"></path>
                <polygon id="Shape" fill="#FD5FAB" points="16.3473558 66.7924364 0.510817308 82.6897898 2.97836538 85.1668137 18.8149038 69.2694603"></polygon>
                <polygon id="Shape" fill="#FD5FAB" points="28.5240385 79.0158796 17.9663462 89.6141152 20.4338942 92.0911391 30.9915865 81.4929035"></polygon>
                <polygon id="Shape" fill="#FD5FAB" points="40.6995192 91.2381162 35.4206731 96.537234 37.8882212 99.0142579 43.1670673 93.7151401"></polygon>
            </g>
        </g>
    </g>
</svg>