<?xml version="1.0" encoding="UTF-8"?>
<svg width="17px" height="20px" viewBox="0 0 17 20" version="1.1" xmlns="http://www.w3.org/2000/svg" xmlns:xlink="http://www.w3.org/1999/xlink">
    <!-- Generator: Sketch 48.2 (47327) - http://www.bohemiancoding.com/sketch -->
    <title>Icon</title>
    <desc>Created with Sketch.</desc>
    <defs></defs>
    <g id="Cotnacts" stroke="none" stroke-width="1" fill="none" fill-rule="evenodd" transform="translate(-722.000000, -416.000000)">
        <g id="Text" transform="translate(333.000000, 376.000000)" fill="#FF1182" fill-rule="nonzero">
            <g id="Group">
                <g id="Icon" transform="translate(389.000000, 40.000000)">
                    <path d="M6.23321997,2.04148944 C5.37458844,1.91340628 4.50805054,2.09683401 3.76880515,2.56884416 C2.90463916,3.12070863 2.30691776,3.97696825 2.0863301,4.97791441 C1.9400623,5.6420493 1.97247841,6.33385647 2.18041588,6.98059735 C3.35846467,10.6436175 5.47658058,13.9587575 8.30547895,16.5678589 C8.80437076,17.0288001 9.41869553,17.349008 10.0828304,17.4952758 C11.0837766,17.7158634 12.1116044,17.5332263 12.9757704,16.9813619 C13.7150157,16.5085611 14.245533,15.7993599 14.4898398,14.9660288 L11.5984811,13.0898477 L10.1389656,14.0220084 C9.82033901,14.2259927 9.40209216,14.1761826 9.14039138,13.9034129 C7.31481108,12.005094 5.90431508,9.79763617 4.94922585,7.34191836 C4.81165506,6.99008499 4.94290076,6.59002279 5.26152738,6.38682914 L6.72025222,5.45387774 L6.23321997,2.04148944 Z M6.37223877,6.78847354 C6.49932741,7.1134922 6.37835553,7.48441577 6.08413702,7.67313248 L6.59867066,7.3440546 C6.52036185,7.1604475 6.44487859,6.97524446 6.37223877,6.78847354 Z M9.83228433,12.406191 L11.6050377,11.2739721 L16.2749633,14.3042519 L15.9550215,15.3955744 C15.6064094,16.5846913 14.8464968,17.5973205 13.7975538,18.2681948 C12.5921838,19.0379553 11.1505654,19.2940686 9.75443036,18.9863896 C8.82560302,18.7818264 7.96705208,18.3339608 7.27031698,17.6902254 C4.24768985,14.9024474 1.98552172,11.3616531 0.726849296,7.44794211 C0.436199922,6.5439452 0.390828949,5.57754346 0.595260504,4.64931376 C0.903052677,3.25266541 1.74163562,2.05178208 2.94711917,1.28194903 C3.99516351,0.612769917 5.23324598,0.348579047 6.45848937,0.531350161 L7.5839692,0.699239417 L8.37060342,6.21078697 L7.54290995,6.7401519 L6.59867066,7.3440546 C7.39243205,9.20515022 8.47650526,10.9022709 9.83228433,12.406191 Z" id="Page-1"></path>
                </g>
            </g>
        </g>
    </g>
</svg>