<svg width="15px" height="19px" viewBox="0 0 15 19" version="1.1" xmlns="http://www.w3.org/2000/svg" xmlns:xlink="http://www.w3.org/1999/xlink">
    <g id="Cotnacts" stroke="none" stroke-width="1" fill="none" fill-rule="evenodd" transform="translate(-333.000000, -386.000000)">
        <g id="Text" transform="translate(333.000000, 376.000000)" fill="#FF1182">
            <g id="Group">
                <g id="Icon" transform="translate(0.000000, 10.000000)">
                    <path d="M7.5,0 C3.35777778,0 0,3.16788966 0,7.07586207 C0,10.9838345 7.5,19 7.5,19 C7.5,19 15,10.9838345 15,7.07586207 C15,3.16788966 11.6422222,0 7.5,0 M7.5,1.57241379 C10.7166667,1.57241379 13.3333333,4.04110345 13.3333333,7.07586207 C13.3333333,9.14253793 10.1372222,13.5154207 7.5,16.5664276 C4.76111111,13.394869 1.66666667,9.05133793 1.66666667,7.07586207 C1.66666667,4.04110345 4.28333333,1.57241379 7.5,1.57241379" id="Fill-1"></path>
                    <path d="M8.44444446,6 C8.44444446,5.20241564 7.7976119,4.55555554 6.9997519,4.55555554 C6.20233821,4.55555554 5.55555554,5.20246552 5.55555554,6 C5.55555554,6.79753448 6.20233821,7.44444446 6.9997519,7.44444446 C7.7976119,7.44444446 8.44444446,6.79758436 8.44444446,6 Z M10,6 C10,7.65667914 8.65673633,9 6.9997519,9 C5.34316007,9 4,7.65657555 4,6 C4,4.34342445 5.34316007,3 6.9997519,3 C8.65673633,3 10,4.34332086 10,6 Z" id="Stroke-3" fill-rule="nonzero"></path>
                </g>
            </g>
        </g>
    </g>
</svg>