<svg version="1.1" id="Layer_1" xmlns="http://www.w3.org/2000/svg" xmlns:xlink="http://www.w3.org/1999/xlink" x="0px" y="0px"
	 width="306.541px" height="52.762px" viewBox="0 0 306.541 52.762" enable-background="new 0 0 306.541 52.762"
	 xml:space="preserve">
<g>
	<polygon fill="#7521E1" points="18.234,44.256 8.707,16.699 0,16.699 13.619,51.975 22.85,51.975 36.467,16.699 27.76,16.699 	"/>
	<path fill="#7521E1" d="M56.986,15.789c-10.701,0-19.377,7.781-19.377,18.482s8.676,18.482,19.377,18.482
		c10.703,0,19.379-7.781,19.379-18.482S67.689,15.789,56.986,15.789z M56.986,45.992c-6.473,0-11.72-5.248-11.72-11.721
		s5.247-11.719,11.72-11.719s11.72,5.246,11.72,11.719S63.459,45.992,56.986,45.992z"/>
	<path fill="#7521E1" d="M203.287,15.789c-10.701,0-19.377,7.781-19.377,18.482s8.676,18.482,19.377,18.482
		c10.703,0,19.379-7.781,19.379-18.482S213.99,15.789,203.287,15.789z M203.287,45.992c-6.474,0-11.721-5.248-11.721-11.721
		s5.247-11.719,11.721-11.719c6.473,0,11.719,5.246,11.719,11.719S209.76,45.992,203.287,45.992z"/>
	<path fill="#7521E1" d="M141.668,15.789c-10.703,0-19.379,7.781-19.379,18.482s8.676,18.482,19.379,18.482
		c5.162,0,9.007-3.51,11.237-7.02v6.123h7.659V34.271C160.564,23.57,152.371,15.789,141.668,15.789z M141.668,45.967v0.029
		c-6.475,0-11.724-5.248-11.724-11.725c0-6.475,5.249-11.723,11.724-11.723s11.724,5.248,11.724,11.723
		C153.392,40.814,147.283,45.967,141.668,45.967z"/>
	<rect x="83.496" fill="#7521E1" width="7.659" height="51.975"/>
	<path fill="#7521E1" d="M108.793,8.773h-7.673v27.242c0,7.426,3.495,15.842,15.556,15.842v-7.025c-4.719,0-7.883-3.314-7.883-8.816
		V23.613h7.883V16.76h-7.883V8.773z"/>
	<circle fill="#7521E1" cx="174.508" cy="47.91" r="4.844"/>
	<path fill="#7521E1" d="M306.541,33.387c0-10.454-7.422-17.598-17.568-17.598c-12.201,0-18.721,8.049-18.721,18.234
		c0,8.301,4.652,18.738,19.24,18.738c10.816,0,15.215-6.539,15.215-6.539l-5.344-4.338c0,0-2.809,4.088-9.871,4.088
		c-4.811,0-10.487-2.098-11.563-8.68h28.248C306.177,37.293,306.541,34.767,306.541,33.387z M288.412,22.328
		c5.084,0,10.005,3.035,10.501,8.678h-21.02C278.146,25.363,283.351,22.328,288.412,22.328z"/>
	<path fill="#7521E1" d="M247.793,15.789c-5.33,0-8.958,2.994-10.913,5.934v-4.99h-7.659v35.242h7.659V32.861
		c0-5.5,2.144-10.248,9.124-10.248c7.211,0,8.567,4.748,8.567,10.248v19.113h7.659v-20.99
		C262.23,23.559,259.564,15.789,247.793,15.789z"/>
</g>
</svg>
