<?xml version="1.0" encoding="UTF-8"?>
<svg width="115px" height="70px" viewBox="0 0 115 70" version="1.1" xmlns="http://www.w3.org/2000/svg" xmlns:xlink="http://www.w3.org/1999/xlink">
    <!-- Generator: Sketch 48.2 (47327) - http://www.bohemiancoding.com/sketch -->
    <title>Page 1</title>
    <desc>Created with Sketch.</desc>
    <defs></defs>
    <g id="Services" stroke="none" stroke-width="1" fill="none" fill-rule="evenodd" transform="translate(-291.000000, -393.000000)">
        <g id="Page-1" transform="translate(291.000000, 393.000000)">
            <polygon id="Fill-1" fill="#FEFEFE" points="0 0 0 70 93 70 93 48.16 89.4358398 55.5313043 88.083917 52.3234783 88.083917 65.1304348 4.91608299 65.1304348 4.91608299 4.86956522 88.083917 4.86956522 88.083917 35.798 93 37.246087 93 0"></polygon>
            <polygon id="Fill-2" fill="#FEFEFE" points="1 21 90 21 90 16 1 16"></polygon>
            <polygon id="Fill-4" fill="#F14496" points="32 47.4271644 32 52 16 44.9544734 16 41.0442868 32 34 32 38.6044493 20.8514987 42.9683863"></polygon>
            <polygon id="Fill-5" fill="#F14496" points="64 44.9095425 48 52 48 47.4189609 59.1808405 42.9521838 48 38.5487477 48 34 64 41.0246326"></polygon>
            <polygon id="Fill-6" fill="#F14496" points="34 55.8218437 37.4704732 57 46 30.1781563 42.5295268 29"></polygon>
            <g id="Group-15" transform="translate(62.000000, 7.000000)">
                <path d="M22.535058,3.100813 C22.535058,4.504423 21.4118193,5.642683 20.0253875,5.642683 C18.639558,5.642683 17.5163193,4.504423 17.5163193,3.100813 C17.5163193,1.697203 18.639558,0.558943 20.0253875,0.558943 C21.4118193,0.558943 22.535058,1.697203 22.535058,3.100813" id="Fill-7" fill="#F14496"></path>
                <path d="M14.2161659,3.100813 C14.2161659,4.504423 13.0929273,5.642683 11.7064955,5.642683 C10.3206659,5.642683 9.19742727,4.504423 9.19742727,3.100813 C9.19742727,1.697203 10.3206659,0.558943 11.7064955,0.558943 C13.0929273,0.558943 14.2161659,1.697203 14.2161659,3.100813" id="Fill-9" fill="#F14496"></path>
                <path d="M5.5961375,3.100813 C5.5961375,4.504423 4.47289886,5.642683 3.08646705,5.642683 C1.7006375,5.642683 0.577398864,4.504423 0.577398864,3.100813 C0.577398864,1.697203 1.7006375,0.558943 3.08646705,0.558943 C4.47289886,0.558943 5.5961375,1.697203 5.5961375,3.100813" id="Fill-11" fill="#F14496"></path>
                <path d="M31.9927273,39.2901 L30.9206818,41.5532 L27.4275,48.9403 L26.1025,45.7256 L18.3151136,26.8278 L26.1025,29.1641 L30.9206818,30.6159 L40.9244318,33.6171 L31.9927273,39.2901 Z M52.7229545,32.0677 L30.9206818,25.4736 L26.1025,24.0157 L9.82909091,19.093 L26.1025,58.3526 L27.1444318,60.8658 L30.9206818,52.9419 L34.7029545,45.0058 L46.3509091,55.6198 L49.5971591,51.9659 L37.9492045,41.3519 L52.7229545,32.0677 Z" id="Fill-13" fill="#FEFEFE"></path>
            </g>
        </g>
    </g>
</svg>