<svg width="97px" height="22px" viewBox="0 0 97 22" version="1.1" xmlns="http://www.w3.org/2000/svg" xmlns:xlink="http://www.w3.org/1999/xlink">
    <g id="Home" stroke="none" stroke-width="1" fill="none" fill-rule="evenodd" transform="translate(-47.000000, -14.000000)">
        <animate attributeName="fill-opacity"
                 begin="0s" dur="1s"
                 values="1;.2;1" calcMode="linear"
                 repeatCount="indefinite" />
        <g id="Header" transform="translate(47.000000, 4.000000)" fill="#ad2f6b">
            <path d="M11.2476399,31.9906228 L0,10.2356013 L2.97256565,10.2356013 C4.88765095,14.0579679 7.411659,19.0724066 9.21751006,22.5642282 C10.4888106,25.0245618 11.370819,26.958602 11.370819,26.958602 C11.370819,26.958602 12.2760686,24.977676 13.5764208,22.4622516 C15.3787857,18.9751185 17.8737421,14.0204593 19.7690723,10.2356013 L22.7404758,10.2356013 L11.4905118,31.9964836 L11.2476399,31.9906228 Z M34.2286635,12.295061 C29.5815603,12.295061 25.8141413,16.1936171 25.8141413,21.0017582 C25.8141413,25.8110714 29.5815603,29.7084554 34.2286635,29.7084554 C38.8757667,29.7084554 42.6431857,25.8110714 42.6431857,21.0017582 C42.6431857,16.1936171 38.8757667,12.295061 34.2286635,12.295061 L34.2286635,12.295061 Z M34.2286635,32 C28.1998634,32 23.3122125,27.0758165 23.3122125,21.0017582 C23.3122125,14.9276999 28.1998634,10.0035164 34.2286635,10.0035164 C40.2574636,10.0035164 45.1451145,14.9276999 45.1451145,21.0017582 C45.1451145,27.0758165 40.2574636,32 34.2286635,32 L34.2286635,32 Z M59.7441537,31.7714316 L49.0682504,31.7714316 L49.0682504,10.233257 L51.566693,10.233257 L51.566693,29.2501465 L59.7441537,29.2501465 L59.7441537,31.7714316 Z M67.9216144,12.7533699 L59.7441537,12.7533699 L59.7441537,10.233257 L70.4212191,10.233257 L70.4212191,31.7714316 L67.9216144,31.7714316 L67.9216144,12.7533699 Z M76.6673256,12.7533699 C75.9770582,12.7533699 75.4181043,12.1883958 75.4181043,11.4933134 C75.4181043,10.797059 75.9770582,10.233257 76.6673256,10.233257 C77.357593,10.233257 77.9165469,10.797059 77.9165469,11.4933134 C77.9165469,12.1883958 77.357593,12.7533699 76.6673256,12.7533699 L76.6673256,12.7533699 Z M94.0262723,31.766743 C92.1123491,27.9432042 89.588341,22.9275934 87.7824899,19.4345996 C86.5100273,16.9742661 85.629181,15.0402259 85.629181,15.0402259 C85.629181,15.0402259 84.7239314,17.0211519 83.4235792,19.5365763 C81.6200522,23.0248815 79.1262579,27.9807129 77.2309277,31.766743 L74.2583621,31.766743 L85.5094882,10 L85.7523601,10.0058607 L97,31.766743 L94.0262723,31.766743 Z" id="Fill-1"></path>
        </g>
    </g>
</svg>